<svg width="48" height="48" viewBox="0 0 48 48" fill="none" xmlns="http://www.w3.org/2000/svg">
<path d="M47.2379 24.1594C47.2379 11.3517 36.8553 0.969096 24.0477 0.969096C11.2401 0.969097 0.85742 11.3517 0.857421 24.1594C0.857421 36.967 11.2401 47.3496 24.0477 47.3496C36.8553 47.3496 47.2379 36.967 47.2379 24.1594Z" fill="#E4EDFF"/>
<mask id="mask0" style="mask-type:alpha" maskUnits="userSpaceOnUse" x="0" y="0" width="48" height="48">
<path d="M47.2379 24.1603C47.2379 11.3527 36.8553 0.970072 24.0477 0.970073C11.2401 0.970073 0.85742 11.3527 0.857421 24.1603C0.857421 36.968 11.2401 47.3506 24.0477 47.3506C36.8553 47.3506 47.2379 36.968 47.2379 24.1603Z" fill="#E4EDFF"/>
</mask>
<g mask="url(#mask0)">
<path d="M24.3001 5.05957H23.5488V12.6477H24.3001V5.05957Z" fill="#3A3687"/>
<path d="M23.925 5.27197C24.8102 5.27197 25.5278 4.55438 25.5278 3.66919C25.5278 2.784 24.8102 2.06641 23.925 2.06641C23.0399 2.06641 22.3223 2.784 22.3223 3.66919C22.3223 4.55438 23.0399 5.27197 23.925 5.27197Z" fill="#70A2FF"/>
<g style="mix-blend-mode:multiply">
<path d="M23.925 4.79651C23.5417 4.79576 23.1713 4.65767 22.8811 4.40726C22.5908 4.15685 22.4 3.81072 22.3431 3.43164C22.3388 3.51089 22.3388 3.59031 22.3431 3.66955C22.364 4.07995 22.5418 4.46661 22.8397 4.74968C23.1376 5.03274 23.5328 5.19057 23.9438 5.19057C24.3547 5.19057 24.7499 5.03274 25.0478 4.74968C25.3457 4.46661 25.5235 4.07995 25.5445 3.66955C25.5508 3.59038 25.5508 3.51082 25.5445 3.43164C25.4875 3.81756 25.2915 4.16934 24.9932 4.42074C24.6949 4.67213 24.315 4.80578 23.925 4.79651Z" fill="#C5C3E6"/>
</g>
<g style="mix-blend-mode:screen">
<path d="M23.9246 2.85494C24.2438 2.85448 24.5604 2.91102 24.8596 3.0219C24.8838 3.03306 24.9112 3.03528 24.9369 3.02816C24.9626 3.02105 24.9849 3.00506 24.9999 2.98304C25.0149 2.96102 25.0216 2.93439 25.0189 2.90788C25.0161 2.88137 25.0041 2.8567 24.9848 2.83824C24.85 2.69218 24.6864 2.57561 24.5043 2.49589C24.3222 2.41616 24.1255 2.375 23.9267 2.375C23.7279 2.375 23.5313 2.41616 23.3492 2.49589C23.1671 2.57561 23.0035 2.69218 22.8686 2.83824C22.8494 2.8567 22.8374 2.88137 22.8346 2.90788C22.8318 2.93439 22.8386 2.96102 22.8536 2.98304C22.8686 3.00506 22.8909 3.02105 22.9166 3.02816C22.9423 3.03528 22.9697 3.03306 22.9939 3.0219C23.2915 2.91063 23.6069 2.85407 23.9246 2.85494Z" fill="#235ECC"/>
</g>
<path d="M16.3396 46.8774C19.5668 46.8774 22.183 44.2612 22.183 41.0339C22.183 37.8066 19.5668 35.1904 16.3396 35.1904C13.1123 35.1904 10.4961 37.8066 10.4961 41.0339C10.4961 44.2612 13.1123 46.8774 16.3396 46.8774Z" fill="#474CA8"/>
<path d="M32.2927 46.8774C35.52 46.8774 38.1362 44.2612 38.1362 41.0339C38.1362 37.8066 35.52 35.1904 32.2927 35.1904C29.0654 35.1904 26.4492 37.8066 26.4492 41.0339C26.4492 44.2612 29.0654 46.8774 32.2927 46.8774Z" fill="#474CA8"/>
<g style="mix-blend-mode:multiply">
<path d="M38.0694 40.1705C37.8522 41.6086 37.1085 42.9147 35.9824 43.8352C35.8367 43.9471 35.6691 44.0271 35.4905 44.07C35.3118 44.113 35.1262 44.1179 34.9455 44.0844C34.7649 44.051 34.5933 43.9799 34.4418 43.8758C34.2904 43.7718 34.1626 43.637 34.0666 43.4804C33.6492 42.8 33.1024 41.9319 32.5849 41.0345C31.8301 39.7801 30.9184 38.6271 29.8718 37.6035L33.5449 45.0122C33.1337 45.104 32.714 45.1516 32.2927 45.1541C30.8932 45.1524 29.5407 44.6484 28.4814 43.7338C27.422 42.8192 26.7261 41.5548 26.5202 40.1705C26.4755 40.4564 26.4518 40.7451 26.4492 41.0345C26.4492 42.5843 27.0649 44.0706 28.1607 45.1664C29.2566 46.2623 30.7429 46.8779 32.2927 46.8779C33.8425 46.8779 35.3288 46.2623 36.4247 45.1664C37.5205 44.0706 38.1362 42.5843 38.1362 41.0345C38.135 40.7452 38.1127 40.4565 38.0694 40.1705Z" fill="#C5C3E6"/>
</g>
<g style="mix-blend-mode:multiply">
<path d="M10.5817 40.1705C10.8 41.6082 11.5435 42.9139 12.6686 43.8352C12.8134 43.9476 12.9803 44.028 13.1584 44.0713C13.3366 44.1145 13.5218 44.1195 13.702 44.086C13.8822 44.0525 14.0533 43.9812 14.2039 43.8768C14.3546 43.7724 14.4814 43.6373 14.5761 43.4804C14.9935 42.8 15.5361 41.9319 16.0578 41.0345C16.8096 39.7803 17.7186 38.6273 18.7625 37.6035L15.0978 45.0122C15.509 45.1041 15.9287 45.1516 16.35 45.1541C17.7452 45.1464 19.0916 44.6397 20.1458 43.7256C21.1999 42.8116 21.8922 41.5505 22.0975 40.1705C22.1422 40.4564 22.1659 40.7451 22.1684 41.0345C22.2251 41.8346 22.1165 42.6379 21.8492 43.3942C21.582 44.1506 21.1618 44.8438 20.615 45.4307C20.0682 46.0176 19.4064 46.4857 18.6709 46.8057C17.9353 47.1257 17.1417 47.2909 16.3396 47.2909C15.5374 47.2909 14.7438 47.1257 14.0083 46.8057C13.2727 46.4857 12.6109 46.0176 12.0641 45.4307C11.5173 44.8438 11.0972 44.1506 10.8299 43.3942C10.5627 42.6379 10.454 41.8346 10.5107 41.0345C10.5132 40.7451 10.537 40.4564 10.5817 40.1705Z" fill="#C5C3E6"/>
</g>
<path d="M37.4566 61.5609C37.4566 65.0657 36.0643 68.4268 33.5861 70.9051C31.1079 73.3833 27.7467 74.7755 24.242 74.7755C20.7372 74.7755 17.376 73.3833 14.8978 70.9051C12.4196 68.4268 11.0273 65.0657 11.0273 61.5609C11.0273 54.2607 16.9418 33.5957 24.242 33.5957C31.5421 33.5957 37.4566 54.2607 37.4566 61.5609Z" fill="#70A2FF"/>
<path d="M24.2421 37.4944C25.9 37.4935 27.5428 37.1791 29.0839 36.5678C27.5813 34.7354 25.9493 33.5918 24.2421 33.5918C22.535 33.5918 20.903 34.7354 19.4004 36.5678C20.9414 37.1795 22.5842 37.4939 24.2421 37.4944Z" fill="#474CA8"/>
<g style="mix-blend-mode:screen">
<path d="M24.2407 41.0343C26.078 41.0308 27.9126 40.8913 29.7294 40.6169C29.8161 40.6032 29.8982 40.5685 29.9685 40.5158C30.0388 40.4632 30.0951 40.3941 30.1325 40.3147C30.17 40.2352 30.1874 40.1478 30.1834 40.0601C30.1793 39.9724 30.1538 39.887 30.1092 39.8113C29.7504 39.2075 29.3588 38.6236 28.9363 38.0625C28.8717 37.9814 28.7844 37.9214 28.6855 37.8902C28.5866 37.859 28.4807 37.8579 28.3812 37.8872C25.6725 38.6107 22.8214 38.6107 20.1127 37.8872C20.0119 37.8567 19.9041 37.858 19.8041 37.8909C19.704 37.9237 19.6165 37.9865 19.5534 38.0708C19.1252 38.6316 18.7281 39.2154 18.3638 39.8197C18.3192 39.8953 18.2937 39.9807 18.2896 40.0684C18.2856 40.1562 18.303 40.2436 18.3405 40.323C18.3779 40.4024 18.4343 40.4715 18.5045 40.5242C18.5748 40.5769 18.6569 40.6116 18.7436 40.6252C20.5634 40.8969 22.4008 41.0336 24.2407 41.0343Z" fill="#235ECC"/>
</g>
<path d="M36.4086 28.0798C39.2567 21.3602 36.1183 13.6041 29.3988 10.756C22.6792 7.90786 14.9231 11.0463 12.075 17.7658C9.22683 24.4853 12.3652 32.2415 19.0848 35.0896C25.8043 37.9377 33.5605 34.7993 36.4086 28.0798Z" fill="#70A2FF"/>
<g style="mix-blend-mode:multiply">
<path d="M24.242 33.0659C21.0028 33.065 17.8768 31.874 15.4582 29.7193C13.0396 27.5647 11.4969 24.5965 11.1233 21.3789C10.8984 23.2349 11.0698 25.1175 11.6263 26.9023C12.1828 28.6872 13.1117 30.3336 14.3516 31.7329C15.5915 33.1321 17.1143 34.2524 18.8192 35.0196C20.5241 35.7868 22.3724 36.1835 24.242 36.1835C26.1115 36.1835 27.9598 35.7868 29.6647 35.0196C31.3696 34.2524 32.8924 33.1321 34.1323 31.7329C35.3722 30.3336 36.3011 28.6872 36.8576 26.9023C37.4141 25.1175 37.5855 23.2349 37.3606 21.3789C36.987 24.5965 35.4443 27.5647 33.0257 29.7193C30.6071 31.874 27.4811 33.065 24.242 33.0659Z" fill="#C5C3E6"/>
</g>
<path d="M27.7683 50.4058C29.7161 48.458 29.7161 45.2998 27.7683 43.352C25.8204 41.4041 22.6623 41.4041 20.7144 43.352C18.7666 45.2998 18.7666 48.458 20.7144 50.4058C22.6623 52.3537 25.8204 52.3537 27.7683 50.4058Z" fill="#474CA8"/>
<path d="M24.2417 51.047C26.5423 51.047 28.4073 49.182 28.4073 46.8814C28.4073 44.5808 26.5423 42.7158 24.2417 42.7158C21.9412 42.7158 20.0762 44.5808 20.0762 46.8814C20.0762 49.182 21.9412 51.047 24.2417 51.047Z" fill="#42F9FF"/>
<path d="M24.2409 32.4358C29.4944 32.4358 33.7532 28.177 33.7532 22.9235C33.7532 17.67 29.4944 13.4111 24.2409 13.4111C18.9873 13.4111 14.7285 17.67 14.7285 22.9235C14.7285 28.177 18.9873 32.4358 24.2409 32.4358Z" fill="#474CA8"/>
<path d="M32.239 22.0639C30.0769 21.0121 28.2028 21.1331 26.1367 22.0639C26.959 19.0378 31.304 18.946 32.239 22.0639Z" fill="#42F9FF"/>
<path d="M23.2344 26.5544C25.6177 26.88 27.3582 26.1871 29.0319 24.6553C29.1905 27.7857 25.0876 29.2174 23.2344 26.5544Z" fill="#42F9FF"/>
<path d="M22.6257 22.0639C20.4636 21.0121 18.5895 21.1331 16.5234 22.0639C17.3457 19.0378 21.7033 18.946 22.6257 22.0639Z" fill="#42F9FF"/>
<g style="mix-blend-mode:screen">
<path d="M36.8001 37.9825C36.1948 37.324 35.4592 36.7985 34.6401 36.4393C33.8211 36.08 32.9363 35.8949 32.0418 35.8955C31.5472 35.8969 31.0543 35.9543 30.5726 36.0666C30.5215 36.0794 30.474 36.104 30.434 36.1383C30.3941 36.1727 30.3627 36.216 30.3424 36.2646C30.3221 36.3133 30.3135 36.366 30.3173 36.4186C30.321 36.4712 30.337 36.5222 30.3639 36.5675L31.1695 37.924C31.2006 37.9774 31.246 38.0209 31.3006 38.0497C31.3552 38.0784 31.4168 38.0913 31.4784 38.0868C31.6662 38.0868 31.8498 38.0868 32.0418 38.0868C33.4668 38.0828 34.8807 38.3359 36.2158 38.8339C36.3287 38.9006 36.4627 38.9218 36.5908 38.8935C36.7188 38.8651 36.8313 38.7891 36.9055 38.681C36.9797 38.5729 37.0101 38.4406 36.9905 38.311C36.9709 38.1813 36.9029 38.0639 36.8001 37.9825Z" fill="#272DA1"/>
</g>
<g style="mix-blend-mode:screen">
<path d="M11.9359 37.9824C12.7105 37.1389 13.6954 36.5166 14.7897 36.1792C15.884 35.8418 17.0484 35.8015 18.1634 36.0624C18.2139 36.0762 18.2604 36.1015 18.2994 36.1363C18.3384 36.1711 18.3688 36.2145 18.3882 36.263C18.4077 36.3116 18.4156 36.3639 18.4113 36.416C18.4071 36.4681 18.3908 36.5186 18.3638 36.5633L17.554 37.9198C17.5236 37.9728 17.4789 38.0162 17.4251 38.045C17.3712 38.0738 17.3103 38.0868 17.2493 38.0826C17.0615 38.0826 16.8737 38.0826 16.6859 38.0826C15.2645 38.0758 13.8535 38.3246 12.5203 38.8172C12.4101 38.8683 12.2854 38.879 12.1681 38.8474C12.0508 38.8158 11.9484 38.7439 11.8787 38.6444C11.8091 38.5449 11.7766 38.4241 11.7871 38.303C11.7975 38.182 11.8502 38.0685 11.9359 37.9824Z" fill="#272DA1"/>
</g>
<g style="mix-blend-mode:screen">
<path d="M24.2431 12.4423C26.7292 12.4305 29.1889 12.9529 31.4556 13.9741C31.5436 13.9992 31.6375 13.9948 31.7227 13.9613C31.8079 13.9279 31.8798 13.8674 31.9272 13.7891C31.9747 13.7108 31.9951 13.6191 31.9853 13.5281C31.9755 13.4371 31.936 13.3518 31.873 13.2854C29.6977 11.5582 27.0019 10.6182 24.2243 10.6182C21.4467 10.6182 18.7509 11.5582 16.5756 13.2854C16.5126 13.3518 16.4731 13.4371 16.4633 13.5281C16.4535 13.6191 16.4739 13.7108 16.5214 13.7891C16.5688 13.8674 16.6407 13.9279 16.7259 13.9613C16.8111 13.9948 16.905 13.9992 16.993 13.9741C19.2723 12.9506 21.7446 12.4282 24.2431 12.4423Z" fill="#235ECC"/>
</g>
<g style="mix-blend-mode:multiply">
<path d="M24.2404 29.8519C22.0352 29.8586 19.8501 29.4332 17.8084 28.5998C17.7541 28.583 17.696 28.5837 17.6421 28.6018C17.5882 28.6198 17.5414 28.6543 17.5082 28.7005C17.475 28.7466 17.4571 28.802 17.457 28.8588C17.457 28.9156 17.4748 28.971 17.5079 29.0172C18.3895 29.9059 19.4383 30.6112 20.5938 31.0926C21.7493 31.5739 22.9887 31.8218 24.2404 31.8218C25.4922 31.8218 26.7316 31.5739 27.8871 31.0926C29.0426 30.6112 30.0914 29.9059 30.973 29.0172C31.0068 28.9707 31.0251 28.9147 31.0251 28.8572C31.0251 28.7997 31.0068 28.7437 30.9729 28.6973C30.939 28.6508 30.8913 28.6164 30.8365 28.5988C30.7817 28.5813 30.7228 28.5816 30.6683 28.5998C28.6282 29.4336 26.4443 29.859 24.2404 29.8519Z" fill="#C5C3E6"/>
</g>
<g style="mix-blend-mode:screen">
<path d="M24.2998 17.1131C26.1347 17.1054 27.9549 17.4395 29.6675 18.0982C29.8111 18.1493 29.9677 18.1504 30.112 18.1013C30.2562 18.0522 30.3797 17.9558 30.4623 17.8278C30.545 17.6997 30.5819 17.5475 30.5672 17.3958C30.5525 17.2441 30.4869 17.1018 30.3812 16.9921C29.6169 16.1348 28.68 15.4488 27.6319 14.9791C26.5839 14.5094 25.4483 14.2666 24.2998 14.2666C23.1513 14.2666 22.0158 14.5094 20.9677 14.9791C19.9197 15.4488 18.9827 16.1348 18.2184 16.9921C18.1127 17.1018 18.0472 17.2441 18.0325 17.3958C18.0177 17.5475 18.0547 17.6997 18.1373 17.8278C18.2199 17.9558 18.3434 18.0522 18.4877 18.1013C18.632 18.1504 18.7886 18.1493 18.9322 18.0982C20.6447 17.4395 22.465 17.1054 24.2998 17.1131Z" fill="#272DA1"/>
</g>
<path d="M36.6137 27.8196H36.3132C35.6456 24.5883 35.6456 21.2547 36.3132 18.0234H36.6012C37.8755 18.0606 39.0851 18.593 39.9733 19.5075C40.8615 20.422 41.3584 21.6467 41.3584 22.9215C41.3584 24.1964 40.8615 25.421 39.9733 26.3355C39.0851 27.25 37.8755 27.7824 36.6012 27.8196H36.6137Z" fill="#474CA8"/>
<g style="mix-blend-mode:screen">
<path d="M36.8519 20.7651C36.8978 20.1974 36.9563 19.6298 37.0314 19.0663C37.0414 19.004 37.0639 18.9444 37.0975 18.8911C37.1311 18.8377 37.1752 18.7917 37.227 18.7559C37.2789 18.72 37.3375 18.695 37.3993 18.6823C37.461 18.6697 37.5248 18.6697 37.5865 18.6823C38.2545 18.8961 38.8663 19.2563 39.3776 19.7364C39.8888 20.2166 40.2865 20.8047 40.5417 21.458C40.5644 21.535 40.5644 21.6169 40.5417 21.6939C40.5191 21.7709 40.4747 21.8397 40.4139 21.8921C40.3531 21.9445 40.2785 21.9783 40.199 21.9894C40.1195 22.0005 40.0385 21.9884 39.9657 21.9547C39.0598 21.6021 38.1238 21.3325 37.1691 21.1491C37.0781 21.1357 36.9953 21.0891 36.9366 21.0181C36.878 20.9472 36.8479 20.857 36.8519 20.7651Z" fill="#272DA1"/>
</g>
<g style="mix-blend-mode:multiply">
<path d="M38.1992 26.1751C37.9261 26.2392 37.6388 26.195 37.3976 26.0518C37.1563 25.9086 36.9799 25.6776 36.9053 25.4071C36.3849 23.3159 36.1283 21.1677 36.1415 19.0127C35.7396 21.4614 35.717 23.9575 36.0747 26.413L36.1123 26.6635C36.1749 27.0517 36.2458 27.4357 36.3252 27.8197H36.6132C37.5257 27.8053 38.4164 27.5383 39.1863 27.0483C39.9563 26.5583 40.5754 25.8646 40.9749 25.044C40.4031 25.5449 39.1133 25.9414 38.1992 26.1751Z" fill="#C5C3E6"/>
</g>
<path d="M11.7658 27.8197H12.0538C12.7214 24.5885 12.7214 21.2548 12.0538 18.0236H11.7658C11.1106 18.0044 10.4581 18.117 9.84715 18.3545C9.23617 18.5921 8.67906 18.9498 8.20882 19.4065C7.73857 19.8632 7.36474 20.4097 7.10946 21.0135C6.85419 21.6172 6.72266 22.2661 6.72266 22.9217C6.72266 23.5772 6.85419 24.2261 7.10946 24.8299C7.36474 25.4336 7.73857 25.9801 8.20882 26.4368C8.67906 26.8935 9.23617 27.2512 9.84715 27.4888C10.4581 27.7263 11.1106 27.8389 11.7658 27.8197Z" fill="#474CA8"/>
<g style="mix-blend-mode:screen">
<path d="M11.5232 20.7651C11.4815 20.1975 11.423 19.6298 11.3479 19.0663C11.3374 19.0039 11.3144 18.9442 11.2804 18.8909C11.2463 18.8375 11.2019 18.7915 11.1497 18.7557C11.0975 18.7198 11.0386 18.6949 10.9766 18.6823C10.9146 18.6697 10.8506 18.6697 10.7886 18.6823C10.1209 18.8967 9.50931 19.257 8.99818 19.7371C8.48704 20.2172 8.08918 20.805 7.83345 21.458C7.81075 21.535 7.81072 21.6169 7.83339 21.6939C7.85605 21.7709 7.90043 21.8397 7.96122 21.8922C8.02201 21.9446 8.09663 21.9784 8.17613 21.9895C8.25563 22.0005 8.33664 21.9885 8.40945 21.9547C9.31571 21.6032 10.2516 21.3336 11.206 21.1491C11.2974 21.1367 11.3808 21.0903 11.4396 21.0191C11.4984 20.948 11.5282 20.8573 11.5232 20.7651Z" fill="#272DA1"/>
</g>
<g style="mix-blend-mode:multiply">
<path d="M10.176 26.1751C10.4498 26.2404 10.7381 26.1968 10.9803 26.0535C11.2225 25.9102 11.3995 25.6785 11.4741 25.4071C11.9925 23.3155 12.249 21.1676 12.238 19.0127C12.6385 21.4616 12.6596 23.9577 12.3006 26.413L12.263 26.6635C12.2046 27.0517 12.1336 27.4357 12.0543 27.8197H11.7663C10.8531 27.806 9.96149 27.5394 9.19073 27.0494C8.41996 26.5594 7.80021 25.8652 7.40039 25.044C7.97222 25.5449 9.26196 25.9414 10.176 26.1751Z" fill="#C5C3E6"/>
</g>
</g>
<path d="M23.9958 48C19.2494 47.9992 14.6099 46.591 10.6637 43.9535C6.71758 41.3161 3.64209 37.5677 1.8261 33.1825C0.0101176 28.7972 -0.464811 23.972 0.461368 19.3168C1.38755 14.6617 3.67324 10.3857 7.02945 7.02945C10.3857 3.67324 14.6617 1.38755 19.3168 0.461368C23.972 -0.464811 28.7972 0.0101176 33.1825 1.8261C37.5677 3.64209 41.3161 6.71758 43.9535 10.6637C46.591 14.6099 47.9992 19.2494 48 23.9958C47.9945 30.3604 45.4637 36.4628 40.9632 40.9632C36.4628 45.4637 30.3604 47.9945 23.9958 48ZM23.9958 1.61531C19.5676 1.61531 15.2387 2.9285 11.5568 5.38881C7.87489 7.84911 5.00526 11.346 3.31082 15.4373C1.61638 19.5286 1.17325 24.0304 2.03747 28.3736C2.90169 32.7167 5.03443 36.706 8.16599 39.837C11.2975 42.9679 15.2873 45.0999 19.6305 45.9634C23.9738 46.8268 28.4756 46.3828 32.5666 44.6876C36.6575 42.9924 40.1539 40.1221 42.6135 36.4397C45.0731 32.7574 46.3855 28.4283 46.3847 24C46.3792 18.0638 44.0186 12.3723 39.821 8.17479C35.6235 3.97726 29.932 1.61667 23.9958 1.61114V1.61531Z" fill="#E4EDFF"/>
</svg>
