<svg width="279" height="67" viewBox="0 0 279 67" fill="none" xmlns="http://www.w3.org/2000/svg">
<g clip-path="url(#clip0)">
<path d="M59.1377 42.2292C58.823 42.1142 58.4885 42.0619 58.1533 42.0753C57.8182 42.0887 57.4891 42.1676 57.1847 42.3075C56.8804 42.4474 56.6069 42.6455 56.3799 42.8904C56.1529 43.1353 55.9768 43.4222 55.8618 43.7348C55.8618 43.7348 54.187 50.0689 38.6278 52.9144C37.5866 50.5805 34.9885 46.5266 29.7431 47.1406L30.8138 49.528C31.4323 49.584 32.0557 49.5529 32.6654 49.4355C32.0171 50.1858 28.1715 51.6621 25.4948 51.0482C25.6941 50.9836 25.8803 50.8846 26.0449 50.7559L25.097 49.0944C25.097 49.0944 21.9783 50.941 23.1963 53.7037C24.4143 56.4663 28.201 55.1654 28.201 55.1654C28.201 55.1654 26.8405 56.3055 25.5488 56.3055C24.7237 58.5712 27.5429 62.4545 30.6075 61.9965C30.4535 62.1965 30.2551 62.3585 30.0276 62.47C29.8002 62.5816 29.5499 62.6396 29.2962 62.6396C31.3442 63.7261 37.9451 63.9941 39.1189 57.967C58.008 54.6002 60.6455 45.5084 60.6602 45.4791C60.7754 45.1666 60.8274 44.8345 60.8132 44.502C60.799 44.1695 60.7189 43.8431 60.5775 43.5413C60.4362 43.2395 60.2362 42.9683 59.9892 42.7432C59.7421 42.518 59.4528 42.3434 59.1377 42.2292Z" fill="#42E8E0"/>
<path d="M17.5097 45.3711L20.1176 50.5699C20.6088 51.5151 20.6088 52.7722 19.9408 53.1717L16.0117 55.5007C16.1507 55.583 16.2807 55.6793 16.3997 55.7882C16.7762 56.1248 17.0572 56.5534 17.2149 57.0313C17.3726 57.5091 17.4014 58.0196 17.2985 58.5119C23.1185 57.0697 23.8355 48.3725 17.5097 45.3711Z" fill="#42E8E0"/>
<path d="M12.8281 56.4562C14.2327 54.3221 12.8281 52.2026 11.0551 51.9005C10.8934 51.8691 10.7284 51.8576 10.5639 51.8664C11.831 49.3572 10.4804 46.9551 8.75653 46.6238C6.3254 46.1365 5.28911 50.4729 5.13194 53.0017C4.97478 55.5304 7.53851 54.8727 7.53851 54.8727C7.71041 54.7655 7.8774 54.6632 8.02965 54.556C7.75741 55.4029 7.59243 56.2802 7.53851 57.1676C7.41573 59.2724 9.9942 58.7608 9.9942 58.7608C10.1661 58.678 10.3282 58.5903 10.4853 58.5075C10.3527 58.6634 10.2299 58.8144 10.1219 58.9606C8.84985 60.6513 11.2662 61.616 11.2662 61.616C17.1206 62.3372 17.7984 58.1761 16.0008 56.4952C15.0529 55.6571 13.9086 55.8472 12.8281 56.4562Z" fill="#42E8E0"/>
<path d="M44.8663 23.4463C43.7465 23.4463 42.8379 24.7034 42.8379 26.2479C42.8379 27.7924 43.7465 29.0495 44.8663 29.0495C45.9861 29.0495 46.8947 27.7973 46.8947 26.2479C46.8947 24.6985 45.9959 23.4463 44.8663 23.4463Z" fill="#42E8E0"/>
<path d="M58.9373 18.3008C59.3188 17.7277 59.8211 17.2436 60.4096 16.8819C60.9981 16.5201 61.6587 16.2894 62.3458 16.2057C59.2614 12.8778 51.143 12.1275 51.143 12.1275C51.5092 12.6138 51.735 13.1899 51.7962 13.7939C50.8139 12.4491 47.8965 9.49155 44.213 10.0178C44.375 9.67155 44.576 9.34465 44.8122 9.0433C44.3532 7.71592 43.9824 6.36014 43.7022 4.98463C44.2896 4.78203 44.7837 4.37601 45.0936 3.84112C45.4035 3.30624 45.5086 2.6784 45.3894 2.07287C45.2703 1.46733 44.9349 0.924757 44.445 0.544777C43.955 0.164796 43.3433 -0.0271293 42.7223 0.00430734C42.1012 0.035744 41.5123 0.288416 41.0639 0.715893C40.6155 1.14337 40.3376 1.717 40.2812 2.33141C40.2247 2.94583 40.3936 3.55978 40.7568 4.06059C41.12 4.56141 41.6531 4.91543 42.2583 5.05767C42.309 6.82 42.5862 8.56873 43.0834 10.2614C39.0217 11.6598 38.2654 16.8829 38.2654 16.8829C38.0675 16.1411 38.0862 15.3587 38.3194 14.627C37.2389 15.2166 28.364 21.9356 28.7422 30.2479C29.1204 38.5601 37.1554 47.0478 50.0625 43.5592C62.9695 40.0705 63.7504 29.2247 63.7504 29.2247C63.7504 29.2247 61.7515 29.2783 61.2653 27.8848C69.1136 29.1808 67.3406 13.9157 58.9373 18.3008ZM54.7135 33.9217C51.4033 39.5249 36.1682 42.0098 32.3914 36.5673C30.7952 34.2676 30.3826 32.5574 30.2598 29.8971C30.1567 27.5973 30.5005 25.7945 31.6497 23.943C33.9581 20.2302 45.7208 18.3446 51.6292 19.8599C55.5877 20.8442 56.3932 31.0615 54.7135 33.8924V33.9217Z" fill="#42E8E0"/>
<path d="M44.0985 33.4685C44.0173 33.4096 43.9251 33.3672 43.8273 33.3437C43.7295 33.3201 43.628 33.316 43.5286 33.3314C43.4292 33.3467 43.3338 33.3814 43.2479 33.4334C43.162 33.4853 43.0872 33.5535 43.0279 33.6342C41.1321 36.2409 37.6696 34.443 37.6597 34.4381C37.48 34.3464 37.2709 34.3292 37.0784 34.3904C36.8859 34.4516 36.7258 34.5863 36.6333 34.7646C36.5408 34.9429 36.5235 35.1504 36.5852 35.3413C36.6469 35.5323 36.7826 35.6911 36.9623 35.7829C36.9623 35.7829 41.5937 38.1899 44.2655 34.5258C44.3247 34.4456 44.3674 34.3546 44.3911 34.258C44.4147 34.1613 44.4189 34.061 44.4034 33.9628C44.3879 33.8645 44.353 33.7703 44.3007 33.6855C44.2483 33.6007 44.1797 33.5269 44.0985 33.4685Z" fill="#42E8E0"/>
<path d="M33.6671 25.3896C32.6357 25.3896 31.8008 26.5444 31.8008 27.9671C31.8008 29.3898 32.6357 30.5397 33.6671 30.5397C34.6985 30.5397 35.5334 29.3898 35.5334 27.9671C35.5334 26.5444 34.6985 25.3896 33.6671 25.3896Z" fill="#42E8E0"/>
<path fill-rule="evenodd" clip-rule="evenodd" d="M17.0478 25.3701C19.9602 25.3701 23.7862 29.7552 25.5886 35.1149C27.3911 40.4745 26.4825 44.8596 23.5652 44.8596C20.6478 44.8596 16.8268 40.4745 15.0243 35.1149C13.2218 29.7552 14.1304 25.3701 17.0478 25.3701ZM36.1333 63.0092L37.1156 65.1969C37.1914 65.3482 37.2359 65.513 37.2466 65.6816C37.2572 65.8502 37.2337 66.0192 37.1775 66.1787C37.1213 66.3382 37.0335 66.4849 36.9193 66.6102C36.8051 66.7356 36.6668 66.837 36.5125 66.9085C36.3582 66.9799 36.1911 67.0201 36.0209 67.0266C35.8507 67.033 35.681 67.0056 35.5216 66.946C35.3623 66.8864 35.2165 66.7958 35.093 66.6795C34.9695 66.5632 34.8707 66.4235 34.8024 66.2688L33.5843 63.8911C34.4827 63.76 35.3477 63.4607 36.1333 63.0092ZM27.9117 45.1422L30.2004 49.9561C29.0816 50.3274 27.9125 50.5278 26.733 50.5505L24.6948 46.7842C20.7067 46.7013 15.7954 41.3271 13.6835 34.7056C11.5716 28.084 13.0794 22.6318 17.0871 22.6318C21.0947 22.6318 26.0601 28.0353 28.1868 34.7056C29.6061 39.1589 29.3949 43.0519 27.9117 45.1422ZM0.511205 38.4086L8.82615 34.2037C9.51374 33.8529 10.3536 34.0381 10.8595 34.9882L19.3414 50.989C19.8325 51.9635 19.9062 53.2011 19.2432 53.6006L16.0704 55.5496C15.1618 54.9941 14.1059 55.2036 13.0499 55.7542C13.373 55.349 13.582 54.866 13.6557 54.3545C13.7294 53.8431 13.6651 53.3214 13.4695 52.8426C13.2738 52.3638 12.9538 51.9449 12.5419 51.6288C12.13 51.3126 11.641 51.1103 11.1247 51.0426C10.9416 51.01 10.7554 50.9986 10.5697 51.0085C11.9301 48.4359 10.4665 45.9608 8.60514 45.6148C6.86651 45.2884 5.79584 47.1155 5.22121 49.1424L0.432624 41.0202C-0.127272 40.0944 -0.171475 38.7643 0.511205 38.4086Z" fill="#42E8E0"/>
<path d="M94.6857 39.6027H89.5926L86.852 36.3723H81.0075V39.6027H77.2012V33.3612H87.8981C89.0769 33.3612 89.9953 32.835 89.9953 31.997C89.9953 31.0468 89.2046 30.5742 87.8981 30.5742H77.2012L79.6814 27.3975H87.5887C90.3833 27.3975 93.9097 28.2745 93.9097 31.7582C93.9331 32.6793 93.6205 33.5779 93.0295 34.2886C92.4385 34.9994 91.6087 35.4746 90.6927 35.6269C91.31 36.1159 91.888 36.6519 92.4215 37.2299L94.6857 39.6027Z" fill="white"/>
<path d="M114.484 33.4924C114.484 37.8483 111.469 39.8265 105.497 39.8265C99.5244 39.8265 96.5039 37.8775 96.5039 33.4924C96.5039 29.1073 99.5048 27.1973 105.497 27.1973C111.488 27.1973 114.484 29.1316 114.484 33.4924ZM110.698 33.4924C110.698 30.8662 109.318 30.3741 105.497 30.3741C101.676 30.3741 100.291 30.8613 100.291 33.4924C100.291 36.1235 101.671 36.6253 105.497 36.6253C109.323 36.6253 110.698 36.1186 110.698 33.4924Z" fill="white"/>
<path d="M133.511 36.0459C133.511 38.068 132.391 39.6027 128.511 39.6027H117.701V32.1772H128.585C129.14 32.1772 129.651 31.9775 129.651 31.3587C129.651 30.7399 129.12 30.5742 128.585 30.5742H117.701L120.275 27.3975H128.423C131.37 27.3975 133.255 28.5327 133.255 30.774C133.288 31.3213 133.143 31.8647 132.842 32.3242C132.54 32.7837 132.098 33.1352 131.581 33.3271C132.163 33.5 132.67 33.862 133.02 34.3551C133.37 34.8482 133.543 35.4437 133.511 36.0459ZM121.527 34.7839V36.4649H128.531C129.356 36.4649 129.709 36.1726 129.709 35.6074C129.709 35.0422 129.356 34.7839 128.531 34.7839H121.527Z" fill="white"/>
<path d="M154.305 33.4924C154.305 37.8483 151.289 39.8265 145.312 39.8265C139.335 39.8265 136.324 37.8775 136.324 33.4924C136.324 29.1073 139.32 27.1973 145.312 27.1973C151.304 27.1973 154.305 29.1316 154.305 33.4924ZM150.518 33.4924C150.518 30.8662 149.138 30.3741 145.312 30.3741C141.486 30.3741 140.111 30.8613 140.111 33.4924C140.111 36.1235 141.491 36.6253 145.312 36.6253C149.133 36.6253 150.518 36.1186 150.518 33.4924Z" fill="white"/>
<path d="M165.116 31.9774H172.974V39.6027H164.546C160.283 39.6027 157.135 36.918 157.135 33.3807C157.135 29.8433 160.283 27.3975 164.546 27.3975H173.352L170.896 30.5742H164.546C162.488 30.5742 160.921 31.8118 160.921 33.5464C160.921 35.281 162.429 36.4698 164.546 36.4698H169.197V34.7011H162.812L165.116 31.9774Z" fill="white"/>
<path d="M193.906 39.6027H188.813L186.073 36.3723H180.228V39.6027H176.422V33.3612H187.119C188.298 33.3612 189.216 32.835 189.216 31.997C189.216 31.0468 188.425 30.5742 187.119 30.5742H176.422L178.902 27.3975H186.809C189.604 27.3975 193.13 28.2745 193.13 31.7582C193.154 32.6793 192.841 33.5779 192.25 34.2886C191.659 34.9994 190.829 35.4746 189.913 35.6269C190.531 36.1159 191.109 36.6519 191.642 37.2299L193.906 39.6027Z" fill="white"/>
<path d="M201.755 39.6023L204.053 36.4645H207.142C207.879 36.4645 208.738 36.4645 209.328 36.4986C208.999 36.0601 208.483 35.3146 208.08 34.7299L205.875 31.5044L200.099 39.6023H195.596L203.483 28.5664C203.745 28.1529 204.107 27.811 204.536 27.5719C204.965 27.3327 205.447 27.2039 205.939 27.1973C206.429 27.1999 206.909 27.3271 207.335 27.5669C207.76 27.8066 208.117 28.1507 208.37 28.5664L216.052 39.6023H201.755Z" fill="white"/>
<path d="M226.939 39.6027H218.703V31.9969H222.529V36.4649H226.949C229.066 36.4649 230.589 35.2956 230.589 33.5415C230.589 31.7875 229.007 30.5694 226.949 30.5694H218.703L221.129 27.3926H226.939C231.242 27.3926 234.351 29.858 234.351 33.3758C234.351 36.8937 231.207 39.6027 226.939 39.6027Z" fill="white"/>
<path d="M241.427 39.6028H237.621V27.4219H241.427V39.6028Z" fill="white"/>
<path d="M256.024 39.1443L248.485 32.4302V39.5974H245.047V29.4727C245.047 27.8502 246.029 27.1924 247.124 27.1924C247.41 27.1934 247.692 27.2523 247.954 27.3654C248.216 27.4785 248.452 27.6434 248.647 27.8501L256.186 34.5594V27.3922H259.639V37.4975C259.639 39.12 258.656 39.7972 257.546 39.7972C257.261 39.7994 256.978 39.7425 256.716 39.6301C256.453 39.5177 256.218 39.3522 256.024 39.1443Z" fill="white"/>
<path d="M270.769 31.9774H278.627V39.6027H270.199C265.936 39.6027 262.793 36.918 262.793 33.3807C262.793 29.8433 265.936 27.3975 270.199 27.3975H279.005L276.55 30.5742H270.199C268.141 30.5742 266.575 31.8118 266.575 33.5464C266.575 35.281 268.083 36.4698 270.199 36.4698H274.865V34.7011H268.48L270.769 31.9774Z" fill="white"/>
</g>
<defs>
<clipPath id="clip0">
<rect width="279" height="67" fill="white"/>
</clipPath>
</defs>
</svg>
